<?xml version="1.0" standalone="no"?>
<!DOCTYPE svg PUBLIC "-//W3C//DTD SVG 20010904//EN"
 "http://www.w3.org/TR/2001/REC-SVG-20010904/DTD/svg10.dtd">
<svg version="1.0" xmlns="http://www.w3.org/2000/svg"
 width="492.000000pt" height="492.000000pt" viewBox="0 0 492.000000 492.000000"
 preserveAspectRatio="xMidYMid meet">

<g transform="translate(0.000000,492.000000) scale(0.100000,-0.100000)"
fill="#000000" stroke="none">
<path d="M425 4905 c-22 -8 -50 -15 -62 -15 -12 0 -25 -4 -28 -10 -3 -5 -17
-10 -31 -10 -14 0 -35 -5 -46 -11 -17 -9 -18 -13 -7 -21 10 -7 5 -8 -16 -5
-32 6 -151 -18 -200 -39 -25 -11 -21 -20 7 -15 5 0 8 -3 8 -9 0 -5 -5 -10 -11
-10 -5 0 -7 -4 -4 -10 3 -5 1 -10 -5 -10 -6 0 -9 -4 -6 -9 3 -4 -1 -17 -9 -27
-22 -29 -18 -57 15 -93 36 -39 73 -108 65 -121 -3 -5 -1 -11 5 -15 5 -3 10
-13 10 -22 0 -12 -3 -13 -13 -4 -11 8 -18 2 -35 -28 -27 -48 -27 -51 -2 -51
16 0 20 7 21 38 0 35 1 35 12 14 8 -18 8 -28 -1 -43 -7 -10 -12 -30 -12 -44 0
-18 -5 -25 -19 -25 -18 0 -20 -7 -18 -84 2 -68 5 -82 15 -74 7 6 11 17 8 25
-3 8 -1 11 4 8 16 -10 11 -29 -10 -43 -21 -13 -28 -7 -34 32 -1 8 -5 19 -9 22
-10 11 -9 -33 2 -54 5 -9 17 -36 26 -59 10 -24 22 -43 27 -43 4 0 8 -5 8 -11
0 -6 16 -30 35 -54 37 -45 54 -87 47 -117 -2 -10 -8 -18 -13 -18 -11 0 -12 27
-1 33 4 2 1 2 -6 0 -8 -2 -27 10 -42 27 -15 16 -35 30 -44 30 -9 0 -21 9 -28
20 -7 11 -16 20 -20 20 -12 0 -10 -68 2 -75 6 -4 8 -9 6 -13 -2 -4 16 -32 40
-62 115 -143 163 -208 157 -214 -4 -3 -15 1 -25 11 -10 9 -21 14 -24 11 -7 -8
-73 11 -91 25 -31 25 -58 59 -65 80 -3 12 -6 -822 -7 -1853 -1 -1340 2 -1871
10 -1863 7 7 24 7 57 -3 33 -10 99 -14 229 -14 101 1 183 3 183 6 0 2 -12 9
-27 15 l-28 10 25 19 c27 21 55 26 64 11 4 -5 0 -12 -6 -14 -7 -3 2 -8 19 -12
18 -4 30 -11 28 -16 -3 -4 0 -11 6 -15 8 -4 9 -3 5 4 -4 7 -1 12 9 12 9 0 14
-4 11 -8 -8 -13 84 -14 100 -1 10 8 14 8 14 0 0 -8 567 -11 2110 -11 l2110 0
0 945 c0 938 0 945 -20 945 -11 0 -20 5 -20 10 0 15 -26 12 -40 -5 -16 -19
-40 -19 -40 0 0 20 -69 32 -81 14 -7 -11 -17 -5 -46 26 -53 57 -81 73 -174 95
-45 11 -87 24 -93 30 -5 5 -32 10 -59 10 -44 0 -48 2 -42 20 9 28 -5 27 -64
-7 -2 -2 2 -9 9 -18 9 -11 9 -15 1 -15 -7 0 -10 -4 -6 -10 3 -5 12 -7 20 -3
11 4 15 -2 15 -21 0 -20 4 -26 18 -24 11 2 17 -3 17 -17 0 -14 8 -21 25 -23
36 -4 81 -23 110 -45 14 -10 40 -25 58 -33 18 -7 31 -18 28 -23 -3 -5 1 -11 8
-14 8 -3 16 -2 18 3 5 14 78 -11 78 -27 0 -7 8 -13 17 -13 10 0 27 -12 40 -27
l22 -28 1 28 c0 18 -5 27 -16 27 -8 0 -12 5 -9 10 9 14 37 12 58 -4 17 -13 17
-15 1 -50 -11 -22 -25 -36 -36 -36 -10 0 -18 -4 -18 -10 0 -5 3 -9 8 -9 23 4
32 -4 33 -28 1 -43 24 -108 37 -106 7 2 12 -4 12 -12 0 -18 -23 -19 -52 -4
-12 6 -35 13 -53 14 -24 2 -32 -1 -32 -13 0 -23 18 -44 33 -38 7 2 20 -4 30
-15 15 -16 15 -19 2 -14 -9 4 -19 2 -22 -4 -4 -6 -13 -8 -21 -4 -15 5 -19 -10
-16 -47 1 -11 -1 -10 -9 3 -6 10 -12 44 -13 77 -2 46 -6 60 -17 60 -9 0 -15
-10 -16 -22 0 -13 -5 -32 -9 -43 -8 -18 -7 -19 8 -6 15 12 17 11 17 -8 0 -26
-14 -27 -32 -3 -16 24 -58 46 -66 36 -4 -4 -1 -9 6 -11 6 -3 9 -10 5 -16 -4
-7 0 -8 13 -4 18 7 18 7 0 -8 -18 -14 -15 -20 7 -16 5 1 6 -3 2 -9 -5 -8 -11
-8 -19 -1 -7 6 -16 8 -20 4 -4 -4 -4 0 0 10 3 10 1 17 -6 17 -6 0 -8 5 -4 12
5 8 2 9 -9 5 -23 -9 -41 26 -27 52 14 27 13 31 -10 31 -11 0 -19 4 -17 8 1 5
-11 20 -27 33 -26 23 -28 27 -15 50 15 28 19 80 4 71 -18 -11 -60 -11 -87 1
-34 14 -36 24 -5 30 20 3 20 4 4 11 -13 6 -22 3 -32 -10 -13 -16 -16 -17 -24
-4 -11 16 5 44 19 35 5 -3 11 -1 15 5 4 6 11 8 16 5 17 -11 9 4 -13 25 l-22
20 -22 -27 -21 -27 2 32 c1 18 -4 33 -12 36 -19 8 -17 85 2 92 8 4 15 12 15
20 0 20 -13 17 -28 -6 -7 -11 -21 -20 -32 -20 -21 0 -27 15 -10 25 17 10 -12
31 -53 39 -22 4 -37 13 -37 21 0 8 5 15 10 15 6 0 10 5 10 11 0 6 -6 9 -14 6
-22 -9 -38 18 -35 55 2 18 0 39 -5 46 -9 15 -46 16 -46 1 0 -5 5 -7 11 -3 8 5
8 1 0 -14 -6 -11 -11 -43 -11 -71 0 -31 -4 -51 -11 -51 -6 0 -9 7 -5 15 3 9 0
15 -9 15 -18 0 -24 11 -29 52 -3 27 2 39 32 68 20 19 40 34 44 33 4 -2 8 4 8
12 0 23 -7 19 -56 -31 l-45 -47 -21 23 -22 23 22 -5 c12 -4 25 -2 28 3 3 5
-18 9 -45 9 -44 0 -51 3 -51 20 0 11 -6 20 -12 21 -7 0 9 7 37 14 27 8 51 19
53 24 2 6 19 13 38 17 23 4 33 11 30 19 -2 7 5 15 17 19 12 3 19 8 16 10 -6 6
-71 -15 -79 -25 -12 -14 -51 -29 -89 -34 -23 -3 -55 -12 -71 -20 -36 -19 -41
-19 -34 0 4 8 10 13 14 10 5 -3 6 4 3 15 -3 11 -9 17 -14 14 -5 -3 -6 2 -3 10
7 18 25 22 21 5 -1 -6 3 -13 10 -16 7 -3 10 5 9 21 -2 14 0 26 5 26 4 0 15 3
25 7 12 4 15 3 10 -5 -4 -7 -2 -12 3 -12 6 0 11 5 11 10 0 6 12 8 28 4 22 -4
24 -3 12 6 -12 9 -11 10 7 5 13 -4 28 -1 36 7 12 11 12 15 -2 25 -14 11 -14
12 3 13 11 0 36 11 55 24 20 12 52 33 71 45 l35 22 -35 -7 c-48 -9 -124 -35
-130 -44 -6 -9 -92 -51 -96 -47 -7 6 14 24 46 41 l35 17 -65 -5 c-61 -6 -108
-25 -65 -27 19 0 19 -1 0 -9 -11 -5 -17 -9 -12 -9 4 -1 -2 -10 -14 -22 -12
-12 -27 -18 -36 -14 -12 4 -13 9 -5 17 6 6 8 17 5 24 -3 8 1 14 11 14 9 0 16
5 16 10 0 6 -8 10 -18 10 -14 0 -5 14 35 55 29 31 53 61 53 66 0 15 22 35 46
43 12 3 38 32 60 64 21 31 49 68 61 82 13 14 23 28 23 32 0 5 5 8 11 8 6 0 43
32 82 70 39 39 66 70 60 70 -6 0 -18 -7 -27 -15 -8 -8 -18 -15 -22 -15 -4 0
-22 -11 -40 -25 -35 -26 -54 -32 -54 -15 0 7 -6 7 -19 0 -25 -13 -51 -13 -51
0 0 5 24 33 54 62 53 53 70 89 68 151 0 18 5 27 16 28 37 3 -58 15 -105 14
-42 -1 -53 2 -56 17 -3 12 -11 16 -21 12 -12 -5 -15 -2 -10 11 5 11 10 13 17
6 17 -17 27 -13 27 8 0 11 4 23 10 26 5 3 69 -23 142 -58 73 -35 159 -76 190
-91 32 -15 60 -31 63 -36 3 -4 17 -11 31 -14 15 -4 114 -50 220 -102 106 -51
196 -94 200 -94 3 0 32 -16 64 -35 32 -19 61 -35 64 -35 4 0 6 12 4 27 -3 25
-26 39 -249 153 -135 69 -258 133 -273 143 -15 10 -46 25 -69 33 -52 18 -198
96 -238 126 -17 13 -56 46 -87 73 -32 28 -72 61 -90 75 -50 38 -142 128 -142
139 0 5 -6 16 -13 23 -7 7 -21 40 -32 73 -16 52 -19 94 -21 305 -2 240 -15
424 -34 489 -5 18 -12 63 -16 99 -3 36 -11 77 -16 91 -6 14 -12 37 -13 51 -4
33 -21 79 -68 178 l-38 82 -81 0 c-72 0 -80 -2 -75 -17 43 -132 52 -177 97
-478 17 -111 24 -311 11 -319 -6 -4 -11 -16 -11 -27 0 -11 -4 -18 -9 -14 -6 3
-9 24 -8 46 1 29 -4 44 -15 50 -10 5 -22 34 -29 67 -16 76 -28 99 -40 81 -7
-11 -15 -7 -39 18 -20 23 -35 31 -47 26 -10 -3 -15 -3 -11 2 4 4 -2 24 -14 44
-29 47 -44 62 -53 53 -4 -4 -5 9 -1 28 14 64 14 65 -28 68 -21 2 -42 -1 -45
-7 -8 -12 -81 5 -81 19 0 5 -9 11 -19 15 -10 3 -21 14 -24 24 -5 21 -64 34
-71 17 -2 -6 -5 -1 -5 12 -1 13 -5 20 -11 17 -6 -3 -10 5 -10 19 0 14 -5 28
-11 32 -7 4 -9 0 -5 -13 4 -11 0 -32 -8 -47 -13 -25 -14 -25 -19 -6 -8 30 -29
25 -25 -7 3 -26 1 -28 -32 -24 -19 1 -37 6 -40 10 -10 16 -50 18 -67 5 -17
-13 -17 -13 5 -14 12 0 22 -5 22 -11 0 -8 -12 -9 -37 -3 -45 9 -68 9 -194 -1
l-96 -8 -19 32 c-10 17 -22 31 -26 31 -4 0 -15 15 -24 33 -9 17 -33 47 -52 64
-31 29 -37 42 -47 105 -9 64 -13 73 -33 76 -20 3 -22 1 -14 -15 5 -10 15 -39
21 -65 11 -49 14 -53 94 -146 26 -30 47 -61 47 -69 0 -7 8 -13 18 -14 11 0 12
-2 4 -6 -10 -4 -10 -8 -1 -19 18 -21 2 -30 -19 -11 -10 10 -21 14 -25 11 -3
-3 -3 5 0 18 6 21 5 22 -10 9 -9 -7 -17 -22 -17 -32 0 -21 -16 -35 -22 -18 -2
6 -4 -11 -6 -38 -3 -76 -11 -103 -29 -96 -11 5 -14 1 -10 -13 4 -10 2 -35 -2
-54 -8 -32 -9 -31 -11 25 -1 33 -1 70 0 83 1 12 -3 22 -9 22 -5 0 -15 17 -21
38 -19 56 -71 152 -81 146 -5 -3 -9 2 -9 10 0 19 -14 28 -34 20 -23 -9 -20
-24 4 -24 16 0 20 -7 20 -34 0 -35 15 -57 23 -34 2 7 8 9 13 5 5 -5 0 -15 -11
-23 -12 -9 -21 -11 -23 -4 -2 5 -21 10 -43 10 -28 0 -39 4 -39 15 0 17 -30 35
-59 35 -12 0 -21 7 -21 15 0 8 5 15 11 15 7 0 9 10 5 25 -4 14 -3 25 2 25 9 0
6 180 -4 189 -3 3 -9 -1 -14 -9 -7 -10 -10 -11 -10 -2 0 7 -13 12 -30 12 l-31
0 16 -30 c8 -16 15 -36 15 -44 0 -8 9 -24 21 -35 15 -14 19 -27 15 -48 -10
-50 -19 -147 -18 -183 0 -19 -4 -41 -11 -49 -7 -8 -12 -30 -12 -50 0 -25 -4
-36 -15 -36 -18 0 -27 80 -11 99 15 18 0 245 -19 291 -4 11 -13 35 -20 53 -11
27 -17 32 -46 32 -34 0 -34 0 -29 -41 7 -57 -1 -79 -31 -79 -17 0 -24 5 -24
20 0 11 4 20 9 20 5 0 12 9 15 20 19 66 32 60 -123 60 -126 0 -167 -8 -128
-23 10 -4 10 -6 0 -6 -15 -1 -18 -51 -3 -51 6 0 10 -32 10 -76 0 -54 4 -80 15
-90 20 -20 20 -80 -1 -88 -8 -3 -12 -2 -9 4 3 6 1 10 -4 10 -6 0 -11 7 -11 15
0 8 -4 15 -9 15 -5 0 -9 14 -9 31 1 17 -3 34 -8 37 -9 6 -24 75 -40 180 -5 40
-7 42 -41 42 l-35 0 7 -52 c4 -29 14 -75 22 -101 9 -28 13 -66 11 -92 -4 -29
-2 -42 5 -38 5 3 7 2 4 -4 -4 -6 9 -48 27 -94 41 -102 52 -138 39 -124 -6 6
-22 42 -37 80 -15 39 -56 125 -91 193 -34 67 -60 122 -56 122 4 0 22 -29 40
-65 33 -66 51 -88 51 -62 0 28 -24 84 -68 160 l-46 77 -75 0 -75 0 56 -53 c58
-56 114 -153 93 -161 -6 -2 -17 10 -25 27 -7 17 -47 66 -88 109 -59 62 -81 78
-103 78 -19 0 -29 -5 -29 -15 0 -8 5 -15 10 -15 6 0 10 -5 10 -11 0 -7 -7 -8
-17 -4 -10 4 -26 7 -35 7 -9 0 -20 8 -23 19 -4 13 -15 19 -36 19 -32 0 -37
-11 -14 -33 7 -8 17 -28 21 -43 4 -16 14 -40 23 -54 26 -39 43 -98 36 -121 -4
-13 -3 -19 2 -16 11 7 11 -58 0 -69 -4 -4 -7 0 -7 10 0 9 -4 15 -9 12 -4 -3
-16 34 -25 82 -9 48 -32 120 -51 160 -34 69 -37 72 -70 72 -26 0 -33 -3 -29
-15 4 -8 2 -15 -4 -15 -5 0 -12 7 -16 15 -8 21 -253 21 -311 0z m286 -32 c13
-16 12 -17 -3 -4 -10 7 -18 15 -18 17 0 8 8 3 21 -13z m246 -25 c-3 -8 -6 -5
-6 6 -1 11 2 17 5 13 3 -3 4 -12 1 -19z m267 -9 c-3 -5 0 -9 7 -9 7 0 9 -3 5
-7 -4 -5 -14 1 -22 11 -18 26 -18 42 1 26 8 -7 12 -16 9 -21z m-538 -25 c-3
-7 -1 -15 5 -18 5 -2 4 -3 -3 -2 -7 2 -12 10 -10 20 2 11 -4 16 -20 17 -13 0
-17 3 -10 6 6 2 9 10 5 16 -3 7 3 3 16 -7 12 -11 20 -25 17 -32z m72 19 c6
-15 12 -31 12 -37 0 -5 7 -18 17 -28 9 -10 14 -20 11 -23 -8 -8 -65 78 -65 98
0 25 10 21 25 -10z m-225 -29 c-1 -10 7 -30 17 -45 15 -20 17 -33 11 -56 -9
-30 -7 -93 4 -144 4 -18 2 -36 -5 -44 -6 -8 -9 -18 -6 -23 3 -6 -2 -9 -12 -8
-18 1 -33 26 -38 61 -2 11 -6 34 -9 50 -6 25 -1 21 29 -25 44 -66 47 -46 6 35
-39 76 -40 131 -2 93 17 -17 16 36 -1 54 -18 19 -23 82 -5 76 7 -3 12 -13 11
-24z m262 -4 c3 -5 1 -10 -4 -10 -6 0 -11 5 -11 10 0 6 2 10 4 10 3 0 8 -4 11
-10z m-371 -25 c-4 -8 -10 -13 -15 -10 -4 3 -6 12 -3 20 4 8 10 13 15 10 4 -3
6 -12 3 -20z m-55 1 c7 -8 8 -17 3 -20 -6 -3 -12 3 -15 14 -6 24 -4 25 12 6z
m-233 -51 c-1 -19 3 -37 9 -39 5 -3 4 -5 -3 -5 -7 -1 -18 10 -24 24 -9 21 -28
35 -28 21 0 -2 -3 -12 -7 -22 -5 -14 -3 -16 11 -11 9 4 15 3 12 -2 -3 -5 9
-24 27 -44 21 -22 33 -43 31 -58 -1 -13 4 -54 11 -91 13 -75 5 -93 -12 -25 -6
23 -18 59 -27 80 -14 32 -14 37 -1 37 8 0 15 5 15 11 0 5 -4 8 -9 5 -12 -8
-103 93 -95 105 5 9 71 45 85 48 4 1 6 -15 5 -34z m144 14 c0 -5 -4 -9 -10 -9
-5 0 -10 7 -10 16 0 8 5 12 10 9 6 -3 10 -10 10 -16z m454 5 c3 -9 6 -23 6
-31 0 -13 -3 -13 -15 -3 -16 13 -21 50 -6 50 5 0 12 -7 15 -16z m-318 -7 c16
6 18 -10 4 -38 -6 -10 -7 -19 -2 -19 10 0 16 -156 6 -172 -4 -6 -13 4 -21 23
-27 62 -33 92 -22 106 7 8 9 29 5 54 -6 38 3 78 11 52 3 -7 11 -9 19 -6z m447
-55 c15 -32 27 -64 27 -70 0 -7 8 -27 17 -45 9 -18 18 -36 20 -42 1 -5 14 -50
28 -100 14 -49 28 -101 30 -115 2 -14 13 -59 24 -100 11 -41 20 -79 20 -85 -1
-23 -61 159 -89 269 -32 124 -91 279 -117 308 -14 16 -11 38 6 38 4 0 20 -26
34 -58z m-581 2 c-1 -16 6 -47 15 -69 17 -38 64 -95 78 -95 4 0 18 -9 32 -20
14 -11 23 -20 20 -20 -3 0 3 -25 14 -57 10 -31 17 -59 14 -61 -3 -3 1 -15 8
-26 13 -19 18 -42 33 -131 6 -33 7 -66 4 -105 -2 -24 -3 -23 -16 9 -9 18 -17
53 -20 77 -6 58 -91 283 -107 284 -18 0 -59 58 -120 169 -23 42 -27 55 -16 62
8 5 21 2 33 -9 18 -16 18 -16 11 7 -5 17 -4 22 6 19 9 -3 13 -17 11 -34z
m-252 -14 c0 -5 -2 -10 -4 -10 -3 0 -8 5 -11 10 -3 6 -1 10 4 10 6 0 11 -4 11
-10z m2075 -19 c3 -5 1 -12 -5 -16 -5 -3 -10 1 -10 9 0 18 6 21 15 7z m782
-43 c-3 -8 -6 -5 -6 6 -1 11 2 17 5 13 3 -3 4 -12 1 -19z m-970 -40 c-3 -7 -5
-2 -5 12 0 14 2 19 5 13 2 -7 2 -19 0 -25z m-467 -8 c0 -5 -2 -10 -4 -10 -3 0
-8 5 -11 10 -3 6 -1 10 4 10 6 0 11 -4 11 -10z m1447 -52 c-3 -8 -6 -5 -6 6
-1 11 2 17 5 13 3 -3 4 -12 1 -19z m-2739 -84 c13 -19 21 -41 19 -47 -2 -7 2
-27 9 -46 9 -22 11 -38 4 -50 -9 -15 -9 -15 -10 1 0 9 -4 18 -8 20 -10 4 -52
158 -43 158 3 0 16 -16 29 -36z m745 -76 c8 -24 20 -65 26 -93 6 -27 20 -88
31 -135 12 -50 16 -86 11 -88 -6 -2 -8 -11 -5 -20 5 -14 3 -14 -6 1 -7 10 -9
21 -6 24 3 3 0 15 -6 27 -6 11 -19 64 -29 116 -10 52 -24 121 -32 153 -17 67
-7 76 16 15z m-643 8 c0 -8 -4 -18 -10 -21 -5 -3 -10 3 -10 14 0 12 5 21 10
21 6 0 10 -6 10 -14z m34 -78 c10 -38 6 -45 -9 -18 -17 29 -18 40 -6 40 5 0
11 -10 15 -22z m545 -28 c11 -24 11 -24 -3 -6 -9 11 -16 24 -16 30 0 12 5 7
19 -24z m-579 -56 c0 -13 -4 -24 -10 -24 -5 0 -10 14 -10 31 0 17 4 28 10 24
6 -3 10 -17 10 -31z m155 -41 c11 -21 26 -44 32 -51 7 -7 13 -20 13 -28 0 -8
4 -13 8 -10 5 3 8 -7 7 -22 -1 -15 1 -31 4 -37 3 -5 6 -16 7 -25 1 -8 6 -33 9
-55 l8 -40 -33 44 c-31 42 -78 177 -85 243 -4 35 5 30 30 -19z m-264 -43 c16
-30 29 -63 29 -72 0 -27 -27 -22 -63 12 -17 16 -34 25 -37 19 -4 -5 -12 2 -18
16 -12 27 -9 45 8 45 5 0 7 -8 4 -17 -5 -15 -4 -16 5 -3 6 8 11 25 11 38 0 40
31 21 61 -38z m417 -80 c0 -9 -3 -7 -8 5 -5 11 -8 29 -8 40 0 16 2 15 8 -5 4
-14 8 -32 8 -40z m-279 -7 c0 -10 -4 -27 -9 -38 -7 -16 -9 -13 -9 18 -1 20 4
37 9 37 6 0 10 -8 9 -17z m-11 -69 c8 -6 12 -16 8 -23 -12 -18 -31 3 -33 36
-1 15 1 21 4 13 4 -8 13 -20 21 -26z m3179 14 c-3 -8 -6 -5 -6 6 -1 11 2 17 5
13 3 -3 4 -12 1 -19z m-2640 -45 c-3 -10 -5 -2 -5 17 0 19 2 27 5 18 2 -10 2
-26 0 -35z m-437 -182 c0 -10 3 -21 7 -25 13 -13 30 -95 22 -107 -9 -14 -39
40 -39 71 0 11 -4 20 -10 20 -5 0 -10 9 -10 19 0 11 -7 26 -15 35 -25 25 -17
35 15 20 17 -9 30 -23 30 -33z m1060 24 c196 -3 189 -2 183 -26 -5 -18 -12
-20 -55 -17 -41 2 -46 1 -31 -9 9 -7 23 -13 31 -13 12 0 11 -5 -3 -26 -17 -26
-17 -27 4 -21 13 3 21 0 21 -8 0 -17 27 -27 34 -12 3 9 7 8 15 -3 5 -8 7 -19
5 -25 -3 -5 1 -2 8 7 8 9 21 16 29 15 32 -6 80 -33 85 -49 3 -10 9 -18 14 -18
4 0 7 -8 5 -17 -1 -10 2 -24 7 -30 6 -7 8 -19 5 -27 -3 -8 1 -17 9 -20 8 -3
14 -13 14 -22 0 -10 5 -14 15 -10 16 6 19 -2 7 -20 -6 -10 -46 -27 -62 -27 -3
0 -22 -11 -42 -23 -21 -13 -46 -24 -56 -24 -23 0 -40 -45 -58 -160 -6 -37 -13
-102 -13 -132 -1 -10 -11 -28 -23 -40 -13 -13 -24 -27 -24 -33 -1 -5 -2 -15
-3 -22 -1 -7 -16 -10 -43 -7 -42 5 -43 5 -20 -12 12 -9 22 -23 22 -31 0 -13 3
-13 15 -3 20 16 32 5 16 -14 -7 -8 -19 -12 -27 -9 -8 3 -14 1 -14 -5 0 -5 -18
-8 -40 -7 -42 2 -89 33 -70 45 7 4 -3 14 -23 23 -25 12 -41 31 -60 71 -25 53
-43 73 -54 63 -7 -8 36 -97 47 -97 5 0 19 -17 31 -37 13 -20 36 -52 52 -69 15
-18 28 -36 27 -41 -1 -4 3 -9 9 -11 6 -2 11 1 11 7 0 6 7 11 15 11 18 0 20
-17 3 -22 -8 -3 -6 -10 8 -22 14 -12 19 -26 16 -47 -4 -30 -16 -38 -26 -16 -3
6 -3 2 0 -10 3 -14 1 -23 -6 -23 -7 0 -10 -8 -7 -20 3 -11 0 -26 -7 -33 -7 -7
-11 -18 -9 -24 8 -22 -42 -25 -98 -7 -70 23 -114 70 -134 143 -8 31 -20 65
-26 75 -6 11 -19 47 -29 80 -10 34 -30 88 -46 121 -25 54 -28 71 -28 178 -1
95 2 121 14 130 11 9 14 21 9 42 -4 17 -7 24 -8 17 -2 -23 -53 -9 -75 21 -17
24 -21 46 -24 156 -3 82 0 136 7 147 8 15 11 0 12 -66 l1 -85 11 49 c11 44 14
47 26 33 7 -10 19 -17 27 -17 13 0 17 -21 29 -142 9 -100 17 -98 46 11 15 56
34 110 43 120 9 10 16 25 16 35 0 53 83 135 120 119 8 -4 62 -8 120 -8z
m-1311 -223 c12 -22 11 -23 -8 -12 -22 11 -26 22 -14 33 7 8 7 9 22 -21z m91
-2 c0 -5 -2 -10 -4 -10 -3 0 -8 5 -11 10 -3 6 -1 10 4 10 6 0 11 -4 11 -10z
m2856 -176 c-15 -14 -16 -14 -16 4 0 11 6 22 13 25 19 6 21 -11 3 -29z m-1200
-64 c7 0 19 -11 27 -24 l16 -24 -49 21 c-50 21 -69 45 -27 33 12 -3 27 -6 33
-6z m1291 -46 c-3 -3 7 -20 23 -38 17 -17 30 -34 30 -38 0 -12 -54 -36 -69
-30 -9 3 -11 0 -6 -9 5 -8 4 -11 0 -6 -13 11 -17 49 -5 42 13 -8 13 1 0 26 -9
15 -7 19 6 19 10 0 14 6 11 14 -5 13 0 26 11 26 3 0 3 -3 -1 -6z m756 -29 c-7
-19 -27 -19 -42 -1 -10 12 -8 15 11 18 30 5 38 1 31 -17z m-98 -21 c27 -27 15
-137 -24 -215 -18 -35 -37 -68 -42 -74 -5 -5 -9 -17 -9 -26 0 -23 -9 -28 -43
-22 -35 7 -35 23 1 24 15 1 20 3 12 5 -12 4 -15 21 -14 87 1 45 -1 85 -3 90
-2 4 -18 -2 -34 -14 -16 -11 -27 -25 -24 -30 11 -18 -11 -9 -28 11 -10 12 -15
26 -11 32 4 7 3 8 -4 4 -7 -4 -12 -2 -12 3 0 6 6 11 13 11 7 0 27 14 44 30 48
47 126 97 155 99 4 1 14 -6 23 -15z m-835 -65 c0 -24 -4 -38 -10 -34 -5 3 -10
22 -10 41 0 19 5 34 10 34 6 0 10 -18 10 -41z m920 14 c0 -5 -4 -14 -9 -21 -7
-11 -9 -11 -14 1 -3 8 -3 18 0 21 9 8 23 7 23 -1z m-487 -16 c54 -19 64 -32
43 -56 -9 -10 -16 -22 -14 -27 3 -11 -22 -57 -36 -66 -23 -15 -9 -87 15 -73
11 7 57 -65 85 -135 26 -63 45 -70 59 -22 5 18 14 31 20 29 29 -10 14 -140
-21 -172 -25 -23 -59 -93 -50 -102 6 -6 -41 -71 -64 -90 -8 -7 -30 -20 -49
-29 -32 -16 -35 -16 -47 1 -13 17 -15 17 -52 1 -37 -17 -42 -17 -71 -2 -17 9
-31 18 -31 19 0 1 22 2 49 2 61 0 104 28 111 73 3 18 20 47 38 66 33 35 39 55
23 72 -25 24 -15 164 11 164 16 0 8 68 -11 91 -27 34 -106 34 -132 -1 -11 -14
-21 -41 -23 -60 -4 -46 -19 -81 -44 -103 -18 -16 -25 -17 -61 -6 -61 18 -68 5
-42 -72 26 -76 26 -92 4 -111 -17 -13 -24 -8 -92 63 -55 60 -74 87 -78 114 -3
22 -1 35 7 35 6 0 8 5 4 12 -12 19 -5 89 13 128 23 50 53 80 80 80 23 0 24 -2
18 -44 -4 -26 -3 -46 3 -50 6 -3 59 17 117 45 77 36 111 47 118 40 21 -21 34
-11 44 33 11 48 10 96 -2 139 -8 32 0 34 58 14z m-90 -53 c13 -24 12 -29 -4
-45 -24 -24 -61 -24 -82 -1 -16 17 -16 20 6 39 20 19 41 30 59 32 4 1 14 -11
21 -25z m-322 -19 c1 -17 -18 -17 -25 0 -4 11 -1 15 10 13 8 -2 15 -7 15 -13z
m519 -84 c0 -25 -7 -29 -36 -23 -36 7 -51 48 -27 74 17 19 18 19 40 -7 13 -14
23 -34 23 -44z m-1742 4 c31 -16 31 -16 17 -55 -8 -21 -19 -48 -25 -59 -10
-19 -77 -71 -91 -71 -12 0 3 44 18 53 7 4 13 12 13 18 0 5 -9 4 -20 -3 -22
-14 -33 -8 -24 16 9 22 54 33 65 15 6 -10 9 -5 9 17 0 16 -7 39 -15 50 -8 10
-15 22 -15 27 0 12 35 8 68 -8z m1460 -4 c3 -10 -2 -11 -18 -6 -14 4 -25 2
-30 -5 -4 -7 -13 -9 -19 -5 -9 5 -9 10 0 21 15 18 61 15 67 -5z m-108 -1 c0
-5 -7 -10 -16 -10 -8 0 -12 5 -9 10 3 6 10 10 16 10 5 0 9 -4 9 -10z m-1580
-273 c0 -2 -12 -14 -27 -28 l-28 -24 24 28 c23 25 31 32 31 24z m1700 -27 c0
-5 -7 -7 -15 -4 -8 4 -12 10 -9 15 6 11 24 2 24 -11z m57 -30 c-1 -22 -6 -40
-11 -40 -4 0 -6 -10 -2 -23 4 -17 1 -23 -12 -23 -17 0 -17 4 2 63 12 35 22 63
22 63 1 0 1 -18 1 -40z m-67 9 c0 -5 4 -8 9 -4 6 3 9 -4 8 -15 -1 -11 -5 -20
-9 -20 -4 0 -5 -6 -2 -14 10 -26 -28 -36 -54 -16 -21 17 -21 19 -5 29 10 6 14
11 10 11 -4 0 -3 9 3 20 11 21 40 28 40 9z m-50 -135 c0 -8 -4 -12 -10 -9 -5
3 -10 10 -10 16 0 5 5 9 10 9 6 0 10 -7 10 -16z m130 -39 c-7 -9 -15 -13 -18
-10 -3 2 1 11 8 20 7 9 15 13 18 10 3 -2 -1 -11 -8 -20z m-340 -40 c0 -12 -41
-45 -49 -40 -17 10 0 41 25 43 13 1 24 0 24 -3z m-117 -77 c33 -18 62 -39 64
-48 6 -22 81 -67 131 -78 23 -6 53 -17 67 -26 13 -9 33 -16 43 -16 11 0 27
-11 36 -24 8 -13 28 -27 43 -30 45 -10 123 -83 123 -114 1 -26 2 -25 24 13 62
104 70 113 95 118 27 6 57 59 44 81 -4 6 3 3 14 -7 24 -21 46 -84 31 -93 -5
-3 0 -16 12 -29 21 -22 20 -52 -1 -40 -12 8 -12 3 6 -38 8 -20 15 -50 15 -67
0 -16 4 -30 9 -30 4 0 12 -19 17 -42 8 -40 7 -45 -21 -74 -17 -17 -48 -68 -70
-113 -36 -72 -43 -81 -67 -81 -30 0 -35 -9 -16 -28 9 -9 9 -15 1 -23 -13 -13
-123 -3 -123 11 0 9 44 27 80 33 15 3 7 5 -20 6 -66 4 -74 6 -105 35 -36 33
-26 43 28 29 26 -7 46 -8 52 -2 5 5 16 9 25 9 61 0 108 72 116 179 3 36 7 82
9 101 l4 35 -17 -30 c-19 -35 -16 -25 -27 -100 -8 -60 -34 -136 -35 -102 0 9
-4 17 -10 17 -5 0 -7 -7 -4 -15 8 -20 -13 -45 -35 -42 -45 7 -48 24 -25 180 4
26 3 47 -2 47 -14 0 -54 -52 -54 -72 0 -10 -5 -18 -11 -18 -5 0 -8 -4 -5 -9 4
-5 -15 -21 -40 -35 -40 -22 -55 -25 -98 -20 -28 3 -53 9 -56 13 -11 16 -73 11
-106 -9 -18 -12 -38 -19 -43 -16 -5 3 -14 -1 -21 -9 -14 -17 -90 -21 -90 -4 0
5 -4 7 -10 4 -5 -3 -10 -1 -10 4 0 6 -11 11 -25 11 -14 0 -25 5 -25 11 0 6 -8
8 -19 4 -28 -8 -33 18 -11 60 29 57 33 149 7 145 -4 0 -15 4 -25 9 -15 9 -11
16 32 60 28 28 48 52 45 55 -2 2 -22 7 -43 10 -22 4 -40 8 -41 9 -1 1 -9 14
-18 30 -15 23 -16 31 -4 55 7 15 12 35 10 45 -3 11 1 17 12 17 9 0 14 3 11 8
-2 4 2 22 9 40 18 41 40 41 118 0z m-943 -46 c0 -25 -1 -25 -15 -6 -10 13 -14
15 -15 5 0 -8 -3 -12 -6 -8 -3 3 -3 15 1 26 9 28 35 15 35 -17z m122 -18 c-6
-32 13 -52 41 -47 22 4 23 2 20 -46 -2 -37 1 -51 11 -51 7 0 13 -6 14 -12 0
-7 3 -22 7 -33 4 -15 -4 -30 -34 -59 -30 -29 -39 -34 -35 -19 5 19 2 19 -52
-8 -31 -16 -68 -29 -81 -29 -15 0 -27 -8 -33 -22 -5 -13 -9 -17 -9 -10 -1 6
-8 12 -16 12 -8 0 -15 5 -15 10 0 6 11 10 25 10 14 0 25 6 25 13 0 22 -12 28
-28 14 -13 -10 -14 -9 -7 2 6 11 4 13 -8 8 -10 -4 -21 3 -31 18 -9 14 -30 32
-48 41 -26 13 -29 18 -16 25 9 5 19 27 23 50 6 37 8 39 22 22 13 -17 14 -17 9
0 -3 9 -1 17 5 17 16 0 59 51 59 70 0 12 8 18 26 18 15 0 29 3 33 8 3 5 20 16
36 25 38 19 64 7 57 -27z m166 27 c17 -1 15 -15 -8 -41 -16 -18 -23 -21 -32
-12 -16 16 -50 15 -68 0 -7 -7 -3 2 9 20 12 18 27 30 32 27 5 -4 9 -1 9 4 0 6
10 9 23 7 12 -3 28 -5 35 -5z m-60 -65 c-7 -8 -15 -12 -17 -11 -5 6 10 25 20
25 5 0 4 -6 -3 -14z m-288 -6 c0 -5 -7 -10 -15 -10 -8 0 -15 -5 -15 -12 0 -6
-3 -8 -6 -5 -8 8 14 37 27 37 5 0 9 -4 9 -10z m360 -80 c0 -13 -11 -13 -30 0
-12 8 -11 10 8 10 12 0 22 -4 22 -10z m1667 -22 c-3 -7 -5 -2 -5 12 0 14 2 19
5 13 2 -7 2 -19 0 -25z m34 -35 c-9 -16 -10 -14 -11 12 0 21 3 26 11 18 8 -8
8 -16 0 -30z m416 -79 c-3 -3 -12 -4 -19 -1 -8 3 -5 6 6 6 11 1 17 -2 13 -5z
m-37 -24 c0 -5 -4 -10 -10 -10 -5 0 -10 5 -10 10 0 6 5 10 10 10 6 0 10 -4 10
-10z m-1952 -22 c12 -4 22 -2 22 3 0 5 32 -22 70 -60 39 -38 70 -75 70 -81 0
-6 4 -9 9 -6 4 3 14 33 20 67 7 33 14 59 15 57 7 -8 -13 -236 -22 -260 -6 -15
-20 -32 -32 -38 -12 -6 -25 -22 -30 -35 -5 -14 -33 -38 -64 -56 -31 -17 -73
-46 -93 -65 -67 -60 -203 -139 -203 -118 0 3 -16 -4 -35 -16 -19 -12 -35 -19
-35 -16 0 4 -13 0 -29 -8 -30 -16 -51 -7 -51 22 0 7 -4 10 -10 7 -5 -3 -10 0
-11 7 -2 29 3 74 11 83 4 6 4 19 0 30 -9 25 -2 45 16 45 7 0 25 20 40 45 14
25 30 45 36 45 5 0 7 4 4 9 -7 11 47 58 84 75 13 6 32 18 41 26 8 8 27 24 41
35 15 11 26 23 26 28 1 23 15 67 22 67 6 0 19 31 24 60 5 24 30 69 35 62 3 -5
16 -11 29 -14z m2538 -289 c3 -6 1 -16 -5 -22 -8 -8 -11 -8 -11 1 0 7 -9 12
-20 12 -11 0 -20 5 -20 10 0 14 47 13 56 -1z m-1838 -37 c10 -10 24 -16 30
-14 13 4 85 -68 77 -76 -3 -3 -1 -10 4 -16 5 -6 14 -29 20 -50 9 -34 7 -46
-16 -95 -14 -31 -34 -66 -44 -79 -23 -30 -95 -82 -113 -82 -8 0 -16 -4 -18 -9
-4 -10 -153 -131 -162 -131 -4 0 -16 -8 -27 -18 -10 -11 -29 -23 -42 -29 -32
-15 -173 -53 -196 -53 -22 0 -91 73 -91 96 0 25 31 78 39 66 4 -6 12 -7 20 -3
10 7 11 12 0 29 -19 30 2 69 49 89 20 8 59 33 86 54 27 22 55 39 62 39 8 0 13
5 11 12 -1 6 29 28 67 48 37 20 73 44 78 53 10 19 2 41 -12 32 -5 -3 -7 7 -5
22 7 56 15 64 105 109 55 28 56 28 78 6z m1782 6 c0 -7 3 -22 6 -33 3 -14 -2
-24 -18 -34 -13 -7 -20 -10 -16 -6 5 5 -1 14 -12 22 -23 16 -25 34 -8 51 16
16 48 15 48 0z m-13 -104 c-3 -3 -12 -4 -19 -1 -8 3 -5 6 6 6 11 1 17 -2 13
-5z m-249 -118 c-1 -14 -5 -23 -9 -20 -7 4 0 44 7 44 2 0 3 -11 2 -24z m232
14 c0 -5 -4 -10 -10 -10 -5 0 -10 5 -10 10 0 6 5 10 10 10 6 0 10 -4 10 -10z
m-195 -39 c-3 -6 -11 -8 -17 -5 -6 4 -5 9 3 15 16 10 23 4 14 -10z m122 11 c8
-5 3 -11 -13 -19 -24 -11 -41 -2 -29 17 7 12 25 13 42 2z m-3181 -217 c10 -30
24 -57 31 -59 8 -3 11 -1 8 4 -7 12 25 20 87 23 31 1 48 7 48 15 0 6 5 12 10
12 6 0 10 -3 10 -7 -1 -14 -49 -108 -50 -98 0 6 -10 -9 -22 -32 -12 -24 -28
-43 -35 -43 -7 0 -12 -4 -10 -9 1 -5 -28 -39 -65 -76 -45 -44 -68 -75 -68 -90
0 -13 -6 -30 -12 -37 -25 -27 -52 -84 -60 -128 -21 -109 -20 -156 2 -241 12
-46 32 -126 46 -178 27 -106 28 -112 13 -166 -10 -36 -12 -38 -23 -19 -9 17
-19 20 -54 17 -45 -3 -97 21 -86 39 4 6 -2 8 -15 3 -13 -4 -21 -2 -21 5 0 6 4
9 9 6 5 -3 21 6 36 20 35 32 27 59 -15 51 -43 -9 -99 28 -100 66 0 15 -6 38
-14 50 -11 17 -14 51 -12 142 3 128 8 150 39 178 11 9 16 17 12 17 -5 0 0 7
11 15 26 20 9 19 -22 -1 -13 -9 -27 -14 -30 -12 -6 7 7 39 15 34 3 -2 7 8 8
22 3 55 25 100 54 113 16 6 29 16 29 21 0 5 5 6 10 3 6 -3 13 1 16 9 3 8 14
18 25 21 10 4 19 13 19 21 0 8 5 12 10 9 16 -10 25 26 9 37 -11 7 -11 11 -1
15 7 2 19 11 27 20 8 8 26 16 39 17 31 3 78 34 71 46 -4 6 -21 10 -40 10 -37
0 -46 13 -33 49 5 13 6 26 4 28 -3 3 0 10 5 17 53 63 60 76 39 76 -5 0 -10 5
-10 11 0 5 5 7 10 4 6 -3 10 -1 10 5 0 26 20 -5 36 -55z m134 -4 c0 -6 -4 -13
-10 -16 -5 -3 -10 1 -10 9 0 9 5 16 10 16 6 0 10 -4 10 -9z m3205 -30 c3 -5 1
-12 -5 -16 -6 -3 -20 -25 -32 -48 -12 -23 -23 -36 -25 -29 -3 6 -9 10 -14 6
-22 -13 2 39 34 74 22 24 33 27 42 13z m-4848 -463 c-3 -8 -6 -5 -6 6 -1 11 2
17 5 13 3 -3 4 -12 1 -19z m106 -577 c63 -4 131 -16 140 -26 7 -6 19 -10 27
-7 10 3 7 -4 -7 -19 l-22 -23 -108 37 c-59 20 -100 36 -90 37 9 0 17 5 17 10
0 7 6 7 18 1 9 -5 20 -9 25 -10z m254 -81 c-14 -11 -33 -20 -44 -20 -15 0 -14
3 7 20 14 11 33 20 44 20 16 0 15 -3 -7 -20z m143 -12 c0 -6 -6 -5 -15 2 -8 7
-15 14 -15 16 0 2 7 1 15 -2 8 -4 15 -11 15 -16z m65 13 c3 -5 1 -12 -5 -16
-5 -3 -10 -2 -10 4 0 6 -6 8 -14 5 -8 -3 -16 -2 -19 3 -3 5 5 10 18 11 13 1
27 -2 30 -7z"/>
<path d="M1037 3564 c-12 -13 -8 -42 13 -76 14 -24 21 -28 25 -17 7 19 -27
103 -38 93z"/>
<path d="M1405 3526 c-14 -16 -18 -39 -6 -31 6 3 36 -6 67 -20 31 -14 63 -24
71 -21 7 3 16 -1 20 -10 5 -12 7 -13 14 -3 10 16 -9 41 -25 32 -6 -3 -8 -3 -4
2 13 14 -12 34 -56 46 -64 17 -70 18 -81 5z"/>
<path d="M1315 3459 c61 -46 60 -45 50 -29 -5 8 8 0 28 -17 21 -18 41 -33 45
-34 4 0 24 -2 45 -4 34 -4 36 -3 27 15 -6 11 -8 20 -4 20 3 0 1 6 -5 14 -14
16 -97 42 -166 51 l-50 7 30 -23z m153 -57 c-25 -5 -37 6 -19 18 8 5 19 3 26
-3 10 -10 9 -13 -7 -15z"/>
<path d="M1336 3362 c-3 -5 1 -15 8 -21 11 -10 14 -9 12 3 -3 21 -13 29 -20
18z"/>
<path d="M1378 3333 c7 -3 16 -2 19 1 4 3 -2 6 -13 5 -11 0 -14 -3 -6 -6z"/>
<path d="M1320 3174 c-91 -34 -108 -44 -109 -63 0 -9 -2 -30 -4 -48 -5 -47 9
-61 17 -16 4 21 10 46 13 57 4 13 2 16 -7 11 -8 -5 -11 -4 -6 3 4 6 13 9 21 5
8 -3 15 -1 15 5 0 5 27 19 60 31 32 12 62 26 65 31 8 12 12 13 -65 -16z"/>
<path d="M1475 2990 c3 -5 10 -10 16 -10 5 0 9 5 9 10 0 6 -7 10 -16 10 -8 0
-12 -4 -9 -10z"/>
<path d="M1200 2979 c0 -5 5 -7 10 -4 6 3 10 8 10 11 0 2 -4 4 -10 4 -5 0 -10
-5 -10 -11z"/>
<path d="M1460 2880 c0 -5 5 -10 11 -10 5 0 7 5 4 10 -3 6 -8 10 -11 10 -2 0
-4 -4 -4 -10z"/>
<path d="M1275 771 c-3 -6 -5 -11 -3 -12 27 -6 38 -5 35 4 -5 15 -24 20 -32 8z"/>
<path d="M1245 4900 c12 -13 22 -17 28 -11 13 13 -1 31 -25 31 -21 0 -21 -1
-3 -20z"/>
<path d="M2020 4911 c0 -5 7 -14 15 -21 8 -7 15 -19 15 -26 0 -8 6 -14 14 -14
7 0 19 -13 26 -30 7 -16 16 -30 21 -30 12 0 26 -38 30 -81 2 -19 12 -41 21
-50 10 -9 18 -27 18 -41 0 -37 28 -124 45 -138 15 -13 15 -18 -6 135 -10 70
-51 186 -76 216 -7 8 -13 24 -13 35 -1 22 -27 60 -36 52 -3 -4 0 -16 6 -28 18
-34 4 -35 -21 -1 -21 29 -59 43 -59 22z"/>
<path d="M2265 4890 c6 -39 25 -66 25 -34 -1 10 -8 30 -16 44 l-15 25 6 -35z"/>
<path d="M2300 4820 c0 -5 5 -10 10 -10 6 0 10 5 10 10 0 6 -4 10 -10 10 -5 0
-10 -4 -10 -10z"/>
<path d="M2110 4730 c0 -5 5 -10 10 -10 6 0 10 5 10 10 0 6 -4 10 -10 10 -5 0
-10 -4 -10 -10z"/>
<path d="M2861 4654 c0 -11 3 -14 6 -6 3 7 2 16 -1 19 -3 4 -6 -2 -5 -13z"/>
<path d="M2270 4635 c0 -8 5 -15 10 -15 6 0 10 7 10 15 0 8 -4 15 -10 15 -5 0
-10 -7 -10 -15z"/>
<path d="M13 4533 c-7 -3 -12 -14 -12 -26 1 -17 2 -18 6 -4 3 10 14 17 30 17
15 0 23 3 19 7 -9 9 -27 11 -43 6z"/>
<path d="M0 4320 c0 -5 4 -10 9 -10 6 0 13 5 16 10 3 6 -1 10 -9 10 -9 0 -16
-4 -16 -10z"/>
<path d="M3452 4160 c0 -14 2 -19 5 -12 2 6 2 18 0 25 -3 6 -5 1 -5 -13z"/>
<path d="M130 3899 c0 -5 5 -7 10 -4 6 3 10 8 10 11 0 2 -4 4 -10 4 -5 0 -10
-5 -10 -11z"/>
<path d="M3963 3170 c1 -13 8 -20 21 -20 18 0 19 1 1 20 -10 11 -19 20 -21 20
-1 0 -2 -9 -1 -20z"/>
<path d="M3900 2620 c0 -11 5 -20 10 -20 6 0 10 9 10 20 0 11 -4 20 -10 20 -5
0 -10 -9 -10 -20z"/>
<path d="M3862 2568 c-8 -22 -15 -29 -20 -21 -6 9 -16 4 -36 -17 -20 -21 -23
-30 -12 -30 8 0 18 5 21 10 3 6 22 10 41 10 33 0 34 1 34 40 0 48 -11 51 -28
8z"/>
<path d="M4017 2463 c-17 -4 -18 -5 -1 -17 18 -13 54 -10 54 4 0 7 -28 22 -33
19 -1 -1 -10 -3 -20 -6z"/>
<path d="M3960 2430 c-13 -9 -13 -10 0 -10 8 0 22 5 30 10 13 9 13 10 0 10 -8
0 -22 -5 -30 -10z"/>
<path d="M4888 1923 c6 -2 18 -2 25 0 6 3 1 5 -13 5 -14 0 -19 -2 -12 -5z"/>
<path d="M4290 1880 c0 -5 4 -10 9 -10 6 0 13 5 16 10 3 6 -1 10 -9 10 -9 0
-16 -4 -16 -10z"/>
<path d="M4518 1793 c7 -3 16 -2 19 1 4 3 -2 6 -13 5 -11 0 -14 -3 -6 -6z"/>
<path d="M4618 1593 c7 -3 16 -2 19 1 4 3 -2 6 -13 5 -11 0 -14 -3 -6 -6z"/>
<path d="M4470 1539 c0 -5 5 -7 10 -4 6 3 10 8 10 11 0 2 -4 4 -10 4 -5 0 -10
-5 -10 -11z"/>
</g>
</svg>
